<svg width="24" height="24" viewBox="0 0 24 24" fill="none" xmlns="http://www.w3.org/2000/svg">
    <rect width="24" height="24" fill="none"/>
    <path fill-rule="evenodd" clip-rule="evenodd" d="M12 18C5.80952 18 2 11.5 2 11.5C2 11.5 5.80952 5 12 5C18.1905 5 22 11.5 22 11.5C22 11.5 18.1905 18 12 18ZM3.49396 11.9183C3.37829 11.763 3.27792 11.6223 3.19329 11.5C3.27792 11.3778 3.37829 11.237 3.49396 11.0817C3.9221 10.5069 4.55346 9.74117 5.36401 8.97813C7.00051 7.43756 9.26615 6 12 6C14.7339 6 16.9995 7.43756 18.636 8.97813C19.4465 9.74117 20.0779 10.5069 20.506 11.0817C20.6217 11.237 20.7221 11.3778 20.8067 11.5C20.7221 11.6223 20.6217 11.763 20.506 11.9183C20.0779 12.4931 19.4465 13.2588 18.636 14.0219C16.9995 15.5624 14.7339 17 12 17C9.26615 17 7.00051 15.5624 5.36401 14.0219C4.55346 13.2588 3.9221 12.4931 3.49396 11.9183ZM14.5 11.5C14.5 12.8807 13.3807 14 12 14C10.6193 14 9.5 12.8807 9.5 11.5C9.5 10.1193 10.6193 9 12 9C13.3807 9 14.5 10.1193 14.5 11.5ZM15.5 11.5C15.5 13.433 13.933 15 12 15C10.067 15 8.5 13.433 8.5 11.5C8.5 9.567 10.067 8 12 8C13.933 8 15.5 9.567 15.5 11.5Z" fill="#191919"/>
</svg>
