<svg width="24" height="24" viewBox="0 0 24 24" fill="none" xmlns="http://www.w3.org/2000/svg">
    <path fill-rule="evenodd" clip-rule="evenodd" d="M3.50023 20.104L6.43463 17.1675C3.60891 15.2452 2 12.5 2 12.5C2 12.5 5.80952 6 12 6C13.6614 6 15.1512 6.46815 16.442 7.15318L20.5923 3L21.2981 3.70532L4.20605 20.8093L3.50023 20.104ZM8.24565 18.1816C9.3694 18.6798 10.6261 19 12 19C18.1905 19 22 12.5 22 12.5C22 12.5 20.6154 10.1375 18.1592 8.26111L17.4457 8.97511C17.8727 9.29436 18.2701 9.63367 18.636 9.97813C19.4465 10.7412 20.0779 11.5069 20.506 12.0817C20.6217 12.237 20.7221 12.3778 20.8067 12.5C20.7221 12.6223 20.6217 12.763 20.506 12.9183C20.0779 13.4931 19.4465 14.2588 18.636 15.0219C16.9995 16.5624 14.7339 18 12 18C10.9279 18 9.92781 17.7789 9.00943 17.4173L8.24565 18.1816ZM10.6821 15.7434C11.0889 15.9089 11.5338 16 12 16C13.933 16 15.5 14.433 15.5 12.5C15.5 12.0329 15.4085 11.5872 15.2425 11.1799L14.4453 11.9776C14.4812 12.1461 14.5 12.3208 14.5 12.5C14.5 13.8807 13.3807 15 12 15C11.8214 15 11.6472 14.9813 11.4793 14.9457L10.6821 15.7434ZM7.15509 16.4466L9.11626 14.484C8.72758 13.9201 8.5 13.2366 8.5 12.5C8.5 10.567 10.067 9 12 9C12.7358 9 13.4185 9.22704 13.982 9.61488L15.6993 7.89642C14.5942 7.35292 13.3546 7 12 7C9.26615 7 7.00051 8.43756 5.36401 9.97813C4.55346 10.7412 3.9221 11.5069 3.49396 12.0817C3.37829 12.237 3.27792 12.3778 3.19329 12.5C3.27792 12.6223 3.37829 12.763 3.49396 12.9183C3.9221 13.4931 4.55346 14.2588 5.36401 15.0219C5.89632 15.523 6.49519 16.0132 7.15509 16.4466ZM9.84009 13.7597L13.2582 10.3392C12.8886 10.1236 12.4587 10 12 10C10.6193 10 9.5 11.1193 9.5 12.5C9.5 12.9594 9.62389 13.3898 9.84009 13.7597Z" fill="#191919"/>
</svg>
